<mxfile host="app.diagrams.net" modified="2023-12-04T03:38:46.331Z" agent="5.0 (Macintosh; Intel Mac OS X 10_15_7) AppleWebKit/537.36 (KHTML, like Gecko) Chrome/119.0.0.0 Safari/537.36" etag="JTt82mfHgSCE5IJCz1n6" version="20.8.23" type="github">
  <diagram name="第 1 页" id="EpiI__dmq_ehvaiJu1S2">
    <mxGraphModel dx="2074" dy="1048" grid="1" gridSize="10" guides="1" tooltips="1" connect="1" arrows="1" fold="1" page="1" pageScale="1" pageWidth="827" pageHeight="1169" math="0" shadow="0">
      <root>
        <mxCell id="0" />
        <mxCell id="1" parent="0" />
        <mxCell id="8l4Rr4kvNcIkasgIffHa-1" value="" style="rounded=1;whiteSpace=wrap;html=1;" vertex="1" parent="1">
          <mxGeometry x="200" y="210" width="120" height="60" as="geometry" />
        </mxCell>
      </root>
    </mxGraphModel>
  </diagram>
</mxfile>
